<svg id="ICON" height="512" viewBox="0 0 32 32" width="512" xmlns="http://www.w3.org/2000/svg">
    <path fill="#ffffff" d="m22.5 6c-1.93 0-3.5 1.57-3.5 3.5s1.57 3.5 3.5 3.5 3.5-1.57 3.5-3.5-1.57-3.5-3.5-3.5zm0 5c-.827 0-1.5-.673-1.5-1.5s.673-1.5 1.5-1.5 1.5.673 1.5 1.5-.673 1.5-1.5 1.5zm6.896-5.601c-.1-1.493-1.3-2.694-2.794-2.794l-7.954-.53c-.874-.065-1.711.26-2.322.872l-13.38 13.379c-1.17 1.169-1.17 3.073 0 4.243l8.485 8.485c.585.585 1.354.877 2.122.877s1.536-.292 2.121-.877l13.38-13.379c.61-.611.928-1.457.871-2.32l-.53-7.955zm-1.756 8.861-13.379 13.379c-.392.391-1.025.389-1.415 0l-8.486-8.485c-.39-.39-.39-1.024 0-1.415l13.379-13.378c.188-.188.443-.293.707-.293.022 0 .045 0 .067.002l7.955.53c.497.034.897.434.931.932l.53 7.954c.02.288-.087.571-.29.774zm-15.933 2.349c.492.666.351 1.606-.316 2.098-.666.492-1.606.351-2.098-.316-.492-.666-.351-1.605.316-2.098.666-.492 1.606-.351 2.098.316zm4.293-3.609v8c0 .552-.447 1-1 1s-1-.448-1-1v-8c0-.552.447-1 1-1s1 .448 1 1zm4.707 2.609c.492.666.351 1.606-.316 2.098-.666.492-1.606.351-2.098-.316-.492-.666-.351-1.605.316-2.098.666-.492 1.606-.351 2.098.316z"/>
</svg>